HIERARCHY
ROOT Hips
{
	OFFSET 0.000000 0.000000 0.000000
	CHANNELS 6 Xposition Yposition Zposition Zrotation Yrotation Xrotation 
	JOINT LeftUpLeg_virtual
	{
		OFFSET 0.000000 0.000000 0.000000
		CHANNELS 3 Zrotation Yrotation Xrotation
		JOINT LeftUpLeg
		{
			OFFSET 8.479694 -4.795517 -0.379053
			CHANNELS 3 Zrotation Yrotation Xrotation
			JOINT LeftLeg
			{
				OFFSET 0.485052 -32.551468 0.112863
				CHANNELS 3 Zrotation Yrotation Xrotation
				JOINT LeftFoot
				{
					OFFSET 0.438033 -32.635670 -3.012641
					CHANNELS 3 Zrotation Yrotation Xrotation
					JOINT LeftToeBase
					{
						OFFSET 0.970169 -13.225353 11.864223
						CHANNELS 3 Zrotation Yrotation Xrotation
						End Site
						{
							OFFSET 0.000000 0.000000 0.000000
						}
					}
				}
			}
		}
	}
	JOINT RightUpLeg_virtual
	{
		OFFSET 0.000000 0.000000 0.000000
		CHANNELS 3 Zrotation Yrotation Xrotation
		JOINT RightUpLeg
		{
			OFFSET -8.479694 -4.795517 -0.379053
			CHANNELS 3 Zrotation Yrotation Xrotation
			JOINT RightLeg
			{
				OFFSET -0.484100 -32.551483 0.112903
				CHANNELS 3 Zrotation Yrotation Xrotation
				JOINT RightFoot
				{
					OFFSET -0.438985 -32.635651 -3.012681
					CHANNELS 3 Zrotation Yrotation Xrotation
					JOINT RightToeBase
					{
						OFFSET -0.970169 -13.225354 11.864223
						CHANNELS 3 Zrotation Yrotation Xrotation
						End Site
						{
							OFFSET 0.000000 0.000000 0.000000
						}
					}
				}
			}
		}
	}
	JOINT Spine_virtual
	{
		OFFSET 0.000000 0.000000 0.000000
		CHANNELS 3 Zrotation Yrotation Xrotation
		JOINT Spine
		{
			OFFSET 0.000000 7.722015 1.166203
			CHANNELS 3 Zrotation Yrotation Xrotation
			JOINT Spine1
			{
				OFFSET 0.000000 12.024086 0.248766
				CHANNELS 3 Zrotation Yrotation Xrotation
				JOINT Spine2
				{
					OFFSET -0.000000 11.503036 -0.491240
					CHANNELS 3 Zrotation Yrotation Xrotation
					JOINT Neck_virtual
					{
						OFFSET 0.000000 0.000000 0.000000
						CHANNELS 3 Zrotation Yrotation Xrotation
						JOINT Neck
						{
							OFFSET 0.000000 18.430687 -3.123054
							CHANNELS 3 Zrotation Yrotation Xrotation
							JOINT Head
							{
								OFFSET -0.000000 9.051071 1.034021
								CHANNELS 3 Zrotation Yrotation Xrotation
								End Site
								{
									OFFSET 0.000000 0.000000 0.000000
								}
							}
						}
					}
					JOINT LeftShoulder_virtual
					{
						OFFSET 0.000000 0.000000 0.000000
						CHANNELS 3 Zrotation Yrotation Xrotation
						JOINT LeftShoulder
						{
							OFFSET 6.197824 13.665230 -4.064723
							CHANNELS 3 Zrotation Yrotation Xrotation
							JOINT LeftArm
							{
								OFFSET 7.778132 -0.187073 -1.709282
								CHANNELS 3 Zrotation Yrotation Xrotation
								JOINT LeftForeArm
								{
									OFFSET 21.954697 0.000000 -2.041093
									CHANNELS 3 Zrotation Yrotation Xrotation
									JOINT LeftHand
									{
										OFFSET 22.992908 0.000000 -0.870901
										CHANNELS 3 Zrotation Yrotation Xrotation
										End Site
										{
											OFFSET 0.000000 0.000000 0.000000
										}
									}
								}
							}
						}
					}
					JOINT RightShoulder_virtual
					{
						OFFSET 0.000000 0.000000 0.000000
						CHANNELS 3 Zrotation Yrotation Xrotation
						JOINT RightShoulder
						{
							OFFSET -6.197824 13.665230 -4.064723
							CHANNELS 3 Zrotation Yrotation Xrotation
							JOINT RightArm
							{
								OFFSET -7.778132 -0.187073 -1.709282
								CHANNELS 3 Zrotation Yrotation Xrotation
								JOINT RightForeArm
								{
									OFFSET -21.954697 0.000000 -2.041093
									CHANNELS 3 Zrotation Yrotation Xrotation
									JOINT RightHand
									{
										OFFSET -22.992908 0.000000 -0.870901
										CHANNELS 3 Zrotation Yrotation Xrotation
										End Site
										{
											OFFSET 0.000000 0.000000 0.000000
										}
									}
								}
							}
						}
					}
				}
			}
		}
	}
}
MOTION
Frames: 11
Frame Time: 0.033333
12.615967 81.559906 23.380390 -179.926389 1.180352 179.961496 -3.678583 -0.596259 10.661536 1.827437 -2.544842 -23.275408 5.278491 3.469246 26.885074 -1.456603 -8.251679 -11.224689 0.000000 0.000000 0.000000 -0.032703 -1.982064 10.109735 -4.786973 0.921260 -21.534529 -0.764957 4.428748 29.306340 8.090318 4.850270 -11.009995 0.000000 0.000000 0.000000 2.590129 1.224863 -1.266040 -5.662051 2.169818 0.755645 -0.273065 -2.364068 3.798583 0.022810 0.033024 -0.033109 -0.784004 -1.286569 4.493926 1.086889 -1.202822 -12.007252 0.000000 0.000000 0.000000 0.557095 -0.420329 1.915003 12.613304 4.266451 -3.572380 -4.597691 1.273141 -45.085795 0.030666 -31.985568 -5.741380 0.000000 0.000000 0.000000 -3.071982 0.692341 1.348321 4.615903 -14.040308 -3.887185 11.568008 -7.327057 -45.818791 -0.347834 31.892308 -4.755973 0.000000 0.000000 0.000000 
12.621799 81.564407 23.380091 179.959816 1.132121 179.904724 -3.377734 -0.536657 10.669971 1.554254 -3.113498 -23.314630 5.159738 3.391705 26.995401 -1.621046 -8.474395 -12.021900 0.000000 0.000000 0.000000 -0.058191 -2.047861 10.073418 -4.758068 0.655690 -21.579108 -0.856967 4.077456 29.516826 7.856213 4.566707 -11.127260 0.000000 0.000000 0.000000 2.529635 1.210615 -1.219947 -5.706624 2.152133 0.800448 -0.314112 -2.380712 3.822438 -0.019343 0.006592 -0.027809 -0.720754 -1.194286 4.476449 1.084228 -1.174152 -12.000370 0.000000 0.000000 0.000000 0.625976 -0.428689 1.870222 12.643661 4.240214 -3.565065 -4.642817 1.290920 -45.086820 0.025399 -32.036330 -5.751483 0.000000 0.000000 0.000000 -3.013920 0.736350 1.300963 4.603872 -13.981939 -3.919620 11.593952 -7.436540 -45.835228 -0.328712 31.905309 -4.697618 0.000000 0.000000 0.000000 
12.623466 81.562309 23.378639 -179.978545 1.116989 179.897101 -3.497438 -0.548916 10.666794 1.674330 -2.822121 -23.331183 5.121424 3.410380 27.041054 -1.705472 -8.624689 -12.105079 0.000000 0.000000 0.000000 -0.169388 -2.074576 10.083871 -4.562485 0.645354 -21.559834 -0.853805 4.118645 29.463742 7.806036 4.525405 -11.069817 0.000000 0.000000 0.000000 2.569385 1.178969 -1.184193 -5.686589 2.129593 0.817166 -0.287131 -2.389649 3.828154 0.011385 0.011730 -0.048507 -0.756465 -1.256399 4.510247 1.079743 -1.192695 -11.960494 0.000000 0.000000 0.000000 0.590715 -0.439094 1.897608 12.625335 4.252921 -3.619373 -4.606309 1.241096 -45.031191 0.093232 -32.007820 -5.829311 0.000000 0.000000 0.000000 -3.037267 0.687131 1.373965 4.642831 -13.997759 -3.846418 11.578409 -7.331536 -45.827328 -0.414534 31.877999 -4.824338 0.000000 0.000000 0.000000 
12.627355 81.557999 23.375822 -179.962166 1.155087 179.939558 -3.472509 -0.484198 10.675436 1.702229 -2.905907 -23.393176 5.115957 3.410789 27.106835 -1.687690 -8.615284 -12.128024 0.000000 0.000000 0.000000 -0.072465 -2.154044 10.059879 -4.606517 0.635206 -21.603673 -0.854631 4.160675 29.503480 7.809431 4.554371 -11.149146 0.000000 0.000000 0.000000 2.575691 1.180362 -1.181807 -5.685164 2.133011 0.787177 -0.272932 -2.399290 3.810255 0.024536 0.004500 -0.023751 -0.776064 -1.297615 4.523519 1.076789 -1.211191 -11.942249 0.000000 0.000000 0.000000 0.565613 -0.404669 1.879821 12.546406 4.209840 -3.443053 -4.607398 1.282582 -45.077988 0.112472 -31.982361 -5.841445 0.000000 0.000000 0.000000 -3.054629 0.704202 1.371872 4.653581 -13.956642 -3.819490 11.643225 -7.329415 -45.810154 -0.521979 31.875871 -4.914419 0.000000 0.000000 0.000000 
12.632261 81.558296 23.370829 179.954092 1.146396 179.872813 -3.412479 -0.575736 10.704496 1.569935 -2.930987 -23.261806 5.109434 3.442052 27.002238 -1.646454 -8.541787 -12.037746 0.000000 0.000000 0.000000 -0.088569 -2.047611 10.086976 -4.718042 0.685719 -21.547474 -0.843549 4.062152 29.499406 7.851506 4.581763 -11.143768 0.000000 0.000000 0.000000 2.532178 1.165628 -1.150556 -5.718129 2.140506 0.836016 -0.310437 -2.370764 3.844486 -0.035860 0.017943 -0.041903 -0.682119 -1.206742 4.500789 1.073090 -1.215983 -11.945505 0.000000 0.000000 0.000000 0.664291 -0.432033 1.876389 12.599620 4.267574 -3.637239 -4.720182 1.243680 -45.099657 -0.011447 -31.985086 -5.724606 0.000000 0.000000 0.000000 -2.972743 0.748308 1.305434 4.619196 -13.960538 -3.923819 11.643950 -7.451987 -45.864495 -0.388198 31.886438 -4.698790 0.000000 0.000000 0.000000 
12.635071 81.556374 23.370943 179.951606 1.194788 179.959010 -3.467226 -0.541840 10.675169 1.662207 -3.014088 -23.406356 5.086636 3.429654 27.102763 -1.632859 -8.547070 -12.088390 0.000000 0.000000 0.000000 -0.044327 -2.185993 10.044567 -4.723110 0.628139 -21.615139 -0.872622 4.122543 29.501616 7.827959 4.598709 -11.219393 0.000000 0.000000 0.000000 2.531082 1.201986 -1.191164 -5.727231 2.187777 0.798930 -0.308590 -2.366492 3.840736 -0.035417 0.018935 -0.017779 -0.683695 -1.186589 4.491287 1.071716 -1.222846 -11.889633 0.000000 0.000000 0.000000 0.658761 -0.456968 1.888619 12.601252 4.259860 -3.654216 -4.758933 1.230863 -45.155733 -0.005680 -31.956112 -5.725483 0.000000 0.000000 0.000000 -2.964603 0.656581 1.330340 4.623630 -13.983666 -3.902128 11.645987 -7.407481 -45.855605 -0.469400 31.876247 -4.741381 0.000000 0.000000 0.000000 
12.633201 81.556084 23.372490 -179.959652 1.234522 179.974843 -3.480283 -0.510728 10.662219 1.708238 -2.758132 -23.431975 5.062748 3.460429 27.102042 -1.692653 -8.642587 -12.151625 0.000000 0.000000 0.000000 -0.100295 -2.215247 10.014825 -4.571063 0.662480 -21.604993 -0.913525 4.215831 29.401471 7.804709 4.600725 -11.133990 0.000000 0.000000 0.000000 2.581430 1.120229 -1.174369 -5.689773 2.161382 0.798738 -0.256223 -2.375338 3.825698 0.029975 0.022552 -0.039305 -0.772692 -1.279668 4.535203 1.058870 -1.171070 -11.871968 0.000000 0.000000 0.000000 0.577701 -0.394448 1.925324 12.564278 4.344077 -3.622715 -4.746489 1.230964 -45.098083 0.009330 -31.931701 -5.700867 0.000000 0.000000 0.000000 -3.046312 0.738583 1.371588 4.621208 -13.845975 -3.878556 11.706750 -7.422033 -45.904417 -0.496954 31.895173 -4.781091 0.000000 0.000000 0.000000 
12.630288 81.556305 23.374716 -179.960130 1.208395 179.890749 -3.453397 -0.606484 10.685177 1.661450 -2.666138 -23.328137 5.052157 3.474829 27.077204 -1.715571 -8.654474 -12.119435 0.000000 0.000000 0.000000 -0.109075 -2.163703 10.027564 -4.582860 0.700632 -21.526162 -0.909713 4.145914 29.424189 7.798796 4.615729 -11.141198 0.000000 0.000000 0.000000 2.591513 1.075861 -1.094476 -5.685705 2.174225 0.847256 -0.259176 -2.362297 3.850555 -0.061931 0.022365 -0.021569 -0.685461 -1.195164 4.492503 1.087992 -1.290904 -11.795045 0.000000 0.000000 0.000000 0.662281 -0.405327 1.879076 12.618290 4.327464 -3.734673 -4.783779 1.262295 -45.080724 -0.045491 -31.918328 -5.662677 0.000000 0.000000 0.000000 -2.951560 0.694740 1.334875 4.620045 -13.856115 -3.797540 11.733537 -7.395423 -45.878169 -0.624900 31.935130 -4.853993 0.000000 0.000000 0.000000 
12.626164 81.554893 23.372776 -179.964474 1.171603 179.974720 -3.483628 -0.584342 10.681294 1.713946 -2.707061 -23.415442 5.039073 3.494857 27.170182 -1.726595 -8.662279 -12.142349 0.000000 0.000000 0.000000 -0.045940 -2.291960 9.990960 -4.624780 0.686168 -21.572809 -0.902023 4.167044 29.432819 7.794529 4.648242 -11.178686 0.000000 0.000000 0.000000 2.589609 1.037959 -1.113597 -5.698496 2.169467 0.811496 -0.267319 -2.370034 3.834463 0.007990 0.020955 -0.042075 -0.750896 -1.214869 4.528620 1.066600 -1.198761 -11.783976 0.000000 0.000000 0.000000 0.610539 -0.438251 1.908844 12.616678 4.307302 -3.730397 -4.798681 1.388024 -45.063525 -0.059400 -31.863153 -5.636294 0.000000 0.000000 0.000000 -3.004880 0.698535 1.388504 4.632649 -13.809908 -3.819575 11.729468 -7.483258 -46.149157 -0.490318 32.002489 -4.747731 0.000000 0.000000 0.000000 
12.623202 81.553055 23.370829 179.933670 1.232410 179.920816 -3.441150 -0.622380 10.678752 1.613805 -2.822094 -23.372824 5.013592 3.541634 27.125886 -1.687617 -8.571904 -12.083691 0.000000 0.000000 0.000000 -0.242937 -2.164184 10.002935 -4.548033 0.733969 -21.533445 -0.960685 4.125912 29.426746 7.774492 4.626581 -11.116193 0.000000 0.000000 0.000000 2.531843 1.089794 -1.027167 -5.727706 2.235345 0.843555 -0.284284 -2.314591 3.861942 -0.016796 0.047197 -0.008665 -0.695036 -1.148362 4.493604 1.104730 -1.166216 -11.698273 0.000000 0.000000 0.000000 0.634283 -0.435223 1.948194 12.632846 4.338714 -3.647180 -4.777375 1.328837 -45.100412 0.001137 -31.769109 -5.678203 0.000000 0.000000 0.000000 -2.967594 0.641929 1.323812 4.603482 -13.864556 -3.851999 11.753160 -7.561194 -46.076736 -0.595911 32.072946 -4.861601 0.000000 0.000000 0.000000 
12.613441 81.554916 23.365936 -179.948451 1.199094 179.911363 -3.465191 -0.656376 10.673193 1.707870 -2.557705 -23.376430 5.022607 3.694230 27.136021 -1.834770 -8.758902 -12.121359 0.000000 0.000000 0.000000 -0.013893 -2.187614 9.998323 -4.676606 0.706635 -21.527093 -0.933679 4.118573 29.468318 7.783704 4.709032 -11.180577 0.000000 0.000000 0.000000 2.576976 1.016164 -0.964942 -5.690864 2.197475 0.844746 -0.250167 -2.335092 3.852163 0.003510 0.021613 -0.026665 -0.736708 -1.248189 4.494262 1.080118 -1.053522 -11.631069 0.000000 0.000000 0.000000 0.624121 -0.433646 1.877103 12.619752 4.361591 -3.820151 -4.820505 1.617417 -44.924722 -0.096367 -31.720304 -5.494210 0.000000 0.000000 0.000000 -3.006457 0.733755 1.358567 4.583751 -13.770684 -3.801317 11.797815 -7.690178 -46.194215 -0.587068 32.174043 -4.879056 0.000000 0.000000 0.000000 
